# xmcd
#
# Track frame offsets:
#	150
#	12783
#	24172
#	33442
#	42222
#	52882
#	65713
#	76688
#	87713
#	98882
#	112673
#	126883
#	141085
#	156980
#	172021
#	185286
#	199647
#	212034
#	224770
#	238675
#
# Disc length: 3353 seconds
#
# Revision: 0
# Processed by: cddbd v1.5.1PL0 Copyright (c) Steve Scherf et al.
# Submitted via: dBpowerAMP V4.0
#
DISCID=100d1714
DTITLE=Hernan Figueroa Reyes - Los Esenciales
DYEAR=1995
DGENRE=Country
TTITLE0=LA LATA L'POBRE
TTITLE1=COPLAS DEL PAJARITO AMARILLO
TTITLE2=SOY PESCADOR
TTITLE3=LOMBRIZ CON LOMBRIZ
TTITLE4=ESQUIVA
TTITLE5=TEMBLANDO
TTITLE6=LA BUENA MOZA
TTITLE7=7 NOTAS
TTITLE8=TIEMPO DE SOL
TTITLE9=LA GOROSTIAGUISTA
TTITLE10=VAYA PA'QUE SEPA
TTITLE11=POR NO DEJAR A MI PERRO
TTITLE12=GUITARRA PRESTADA
TTITLE13=PA'L GAUCHAJE
TTITLE14=ASI TE VI TUCUMAN
TTITLE15=COMO LOS GRILLOS
TTITLE16=JURAMENTO A GUEMES
TTITLE17=TIEMPOS CHURITOS
TTITLE18=PARA MI VILLA MARIA
TTITLE19=LA ESPERANZA
EXTD=
EXTT0=
EXTT1=
EXTT2=
EXTT3=
EXTT4=
EXTT5=
EXTT6=
EXTT7=
EXTT8=
EXTT9=
EXTT10=
EXTT11=
EXTT12=
EXTT13=
EXTT14=
EXTT15=
EXTT16=
EXTT17=
EXTT18=
EXTT19=
PLAYORDER=
